<svg xmlns="http://www.w3.org/2000/svg" version="1.1" xmlns:xlink="http://www.w3.org/1999/xlink" xmlns:svgjs="http://svgjs.dev/svgjs" width="2000" height="1247" viewBox="0 0 2000 1247"><g transform="matrix(1,0,0,1,-1.2121212121212466,0.504858299595071)"><svg viewBox="0 0 396 247" data-background-color="#ffffff" preserveAspectRatio="xMidYMid meet" height="1247" width="2000" xmlns="http://www.w3.org/2000/svg" xmlns:xlink="http://www.w3.org/1999/xlink"><g id="tight-bounds" transform="matrix(1,0,0,1,0.2400000000000091,-0.09999999999999432)"><svg viewBox="0 0 395.52 247.2" height="247.2" width="395.52"><g><svg></svg></g><g><svg viewBox="0 0 395.52 247.2" height="247.2" width="395.52"><g transform="matrix(1,0,0,1,75.54432,72.49086559539975)"><svg viewBox="0 0 244.43135999999998 102.2182688092005" height="102.2182688092005" width="244.43135999999998"><g><svg viewBox="0 0 447.7490581841447 187.2432963942649" height="102.2182688092005" width="244.43135999999998"><g><rect width="6.226633963222506" height="133.26608839239748" x="180.79097531196277" y="26.988604000933705" fill="#c10000" opacity="1" stroke-width="0" stroke="transparent" fill-opacity="1" class="rect-qz-0" data-fill-palette-color="primary" rx="1%" id="qz-0" data-palette-color="#c10000"></rect></g><g transform="matrix(1,0,0,1,203.31769818414472,38.09411136696683)"><svg viewBox="0 0 244.43135999999998 111.05507366033123" height="111.05507366033123" width="244.43135999999998"><g id="textblocktransform"><svg viewBox="0 0 244.43135999999998 111.05507366033123" height="111.05507366033123" width="244.43135999999998" id="textblock"><g><svg viewBox="0 0 244.43135999999998 69.04593821040443" height="69.04593821040443" width="244.43135999999998"><g transform="matrix(1,0,0,1,0,0)"><svg width="244.43135999999998" viewBox="1.95 -38.18 176.737831285568 49.919999999999995" height="69.04593821040443" data-palette-color="#c10000"><path d="M15.28 0.61L15.28 0.61Q9.13 0.61 5.54-2.66 1.95-5.93 1.95-12.4L1.95-12.4Q1.95-19.04 5.68-22.33 9.4-25.61 15.63-25.61L15.63-25.61Q21.63-25.61 25.24-22.38 28.86-19.14 28.86-12.84L28.86-12.84Q28.86-6.27 25.24-2.83 21.63 0.61 15.28 0.61ZM15.53-5.3L15.53-5.3Q18.21-5.3 19.58-6.97 20.95-8.64 20.95-12.7L20.95-12.7Q20.95-16.55 19.57-18.13 18.19-19.7 15.48-19.7L15.48-19.7Q12.87-19.7 11.36-18.01 9.86-16.31 9.86-12.5L9.86-12.5Q9.86-8.52 11.29-6.91 12.72-5.3 15.53-5.3ZM41.82-22.17L41.82-20.36 41.92-20.36Q43.75-25.44 48.51-25.44L48.51-25.44Q49.12-25.44 49.51-25.38 49.9-25.32 50.05-25.27L50.05-25.27Q50.41-25.15 50.41-24.71L50.41-24.71 50.41-18.82Q50.41-18.07 49.53-18.41L49.53-18.41Q49.24-18.53 48.69-18.66 48.14-18.8 47.17-18.8L47.17-18.8Q44.65-18.8 43.23-16.96 41.82-15.11 41.82-11.94L41.82-11.94 41.82-1.29Q41.82-0.56 41.51-0.28 41.21 0 40.48 0L40.48 0 35.45 0Q34.71 0 34.41-0.28 34.1-0.56 34.1-1.29L34.1-1.29 34.1-21.75Q34.1-22.34 34.35-22.66L34.35-22.66Q34.86-23.34 35.58-24.05 36.3-24.76 37.35-25.56L37.35-25.56Q37.55-25.71 37.74-25.76 37.94-25.81 38.08-25.81L38.08-25.81Q38.43-25.81 38.77-25.56L38.77-25.56Q40.79-23.97 41.6-22.85L41.6-22.85Q41.82-22.56 41.82-22.17L41.82-22.17ZM78.22-22.66L78.22-22.66 78.22-2.86Q78.22 4.27 74.15 8.01 70.09 11.74 63.01 11.74L63.01 11.74Q60.08 11.74 58.37 11.32 56.66 10.89 55.78 10.5L55.78 10.5Q55.22 10.23 55.05 9.94L55.05 9.94Q54.8 9.55 54.5 8.79 54.19 8.03 53.93 7.13L53.93 7.13Q53.85 6.79 53.9 6.62L53.9 6.62Q54 6.37 54.27 6.1L54.27 6.1Q54.71 5.66 55.52 5.08 56.34 4.49 56.78 4.32L56.78 4.32Q57.25 4.15 57.64 4.37L57.64 4.37Q58.27 4.71 59.46 5.14 60.64 5.57 62.79 5.57L62.79 5.57Q66.21 5.57 68.35 3.81 70.5 2.05 70.5-1.61L70.5-1.61 70.5-2.49 70.41-2.49Q69.87-1.81 69.01-1.1 68.16-0.39 66.8 0.1 65.45 0.59 63.33 0.59L63.33 0.59Q59.64 0.59 57.28-1.01 54.93-2.61 53.82-5.42 52.7-8.23 52.7-11.82L52.7-11.82Q52.7-15.75 54-18.87 55.29-22 58.34-23.82 61.4-25.63 66.69-25.63L66.69-25.63Q69.87-25.63 72.03-25.17 74.19-24.71 75.65-24.02 77.12-23.34 78.22-22.66ZM66.43-19.73L66.43-19.73Q63.59-19.73 62.1-17.82 60.62-15.92 60.62-11.91L60.62-11.91Q60.62-5.64 65.79-5.64L65.79-5.64Q67.82-5.64 68.89-6.47 69.97-7.3 70.5-8.57L70.5-8.57 70.5-18.65Q69.97-19.04 68.99-19.38 68.01-19.73 66.43-19.73ZM91.28 0.61L91.28 0.61Q87.69 0.61 85.58-1.4 83.46-3.42 83.46-6.96L83.46-6.96Q83.46-8.79 84.14-10.36 84.81-11.94 86.48-13.15 88.15-14.36 91.17-15.09 94.18-15.82 98.87-15.94L98.87-15.94Q98.87-18.16 97.76-19.14 96.65-20.12 94.43-20.12L94.43-20.12Q92.42-20.12 91.15-19.43 89.89-18.75 89.57-18.51L89.57-18.51Q89.23-18.21 88.74-18.29L88.74-18.29Q88.08-18.38 87.33-18.63 86.59-18.87 85.73-19.19L85.73-19.19Q85.61-19.24 85.47-19.35 85.32-19.46 85.3-19.68L85.3-19.68Q85.3-19.8 85.32-19.98 85.34-20.17 85.44-20.65L85.44-20.65Q85.54-21.14 85.73-21.86 85.93-22.58 86.1-22.97L86.1-22.97Q86.32-23.39 86.83-23.75L86.83-23.75Q87.25-24.1 89.35-24.85 91.45-25.61 95.43-25.61L95.43-25.61Q106.39-25.61 106.39-14.94L106.39-14.94 106.39-1.12Q106.39-0.66 106.13-0.33 105.88 0 105.27 0L105.27 0 101.6 0Q101.21 0 100.91-0.11 100.6-0.22 100.33-0.54L100.33-0.54 98.82-2.49 98.65-2.49Q97.53-0.85 95.63-0.12 93.74 0.61 91.28 0.61ZM93.96-5.05L93.96-5.05Q96.21-5.05 97.36-6.2 98.5-7.35 98.82-8.57L98.82-8.57 98.82-11.28Q95.43-11.28 93.73-10.75 92.03-10.23 91.47-9.39 90.91-8.54 90.91-7.57L90.91-7.57Q90.91-6.15 91.79-5.6 92.67-5.05 93.96-5.05ZM137.15-15.55L137.15-15.55 137.15-1.29Q137.15-0.56 136.84-0.28 136.54 0 135.81 0L135.81 0 130.78 0Q130.04 0 129.74-0.28 129.43-0.56 129.43-1.29L129.43-1.29 129.43-14.28Q129.43-16.94 128.31-18.16 127.19-19.38 125.26-19.38L125.26-19.38Q123.33-19.38 122.29-18.55 121.25-17.72 120.69-16.46L120.69-16.46 120.69-1.29Q120.69-0.56 120.39-0.28 120.08 0 119.35 0L119.35 0 114.32 0Q113.59 0 113.28-0.28 112.98-0.56 112.98-1.29L112.98-1.29 112.98-21.75Q112.98-22.34 113.22-22.66L113.22-22.66Q113.74-23.34 114.46-24.05 115.18-24.76 116.23-25.56L116.23-25.56Q116.54-25.81 116.84-25.81L116.84-25.81Q117.1-25.81 117.45-25.56L117.45-25.56Q118.47-24.76 119.2-24.02 119.94-23.29 120.5-22.51L120.5-22.51 120.62-22.51Q121.03-23.05 121.87-23.77 122.7-24.49 124.2-25.05 125.7-25.61 128.04-25.61L128.04-25.61Q130.34-25.61 132.41-24.68 134.49-23.75 135.82-21.56 137.15-19.36 137.15-15.55ZM142.61-33.2L142.61-33.2Q142.61-33.52 142.81-33.76 143.01-34.01 143.32-34.4L143.32-34.4Q144.01-35.18 144.91-36.05 145.81-36.91 146.74-37.72L146.74-37.72Q147.33-38.18 147.62-38.18L147.62-38.18Q147.91-38.18 148.52-37.72L148.52-37.72Q150.5-36.01 151.89-34.4L151.89-34.4Q152.21-34.03 152.42-33.78 152.62-33.52 152.62-33.2L152.62-33.2Q152.62-32.89 152.42-32.64 152.21-32.4 151.87-31.98L151.87-31.98Q151.21-31.23 150.33-30.36 149.45-29.49 148.52-28.71L148.52-28.71Q148.18-28.42 147.99-28.33 147.79-28.25 147.62-28.25L147.62-28.25Q147.45-28.25 147.27-28.33 147.08-28.42 146.69-28.71L146.69-28.71Q145.72-29.49 144.86-30.36 144.01-31.23 143.32-32.03L143.32-32.03Q143.01-32.42 142.81-32.65 142.61-32.89 142.61-33.2ZM151.45-23.71L151.45-1.29Q151.45-0.56 151.15-0.28 150.84 0 150.11 0L150.11 0 145.08 0Q144.35 0 144.04-0.28 143.74-0.56 143.74-1.29L143.74-1.29 143.74-23.71Q143.74-24.44 144.04-24.72 144.35-25 145.08-25L145.08-25 150.11-25Q150.84-25 151.15-24.72 151.45-24.44 151.45-23.71L151.45-23.71ZM170.54-25.61L170.54-25.61Q173.45-25.61 174.77-25.13 176.08-24.66 176.43-24.39L176.43-24.39Q176.96-24.05 177.26-23.51L177.26-23.51Q177.43-23.24 177.65-22.58 177.87-21.92 177.96-21.14L177.96-21.14Q178.09-20.53 177.99-20.28 177.89-20.02 177.38-19.65L177.38-19.65Q176.79-19.26 176.1-18.96 175.4-18.65 174.96-18.53L174.96-18.53Q174.59-18.43 174.4-18.48 174.2-18.53 173.86-18.77L173.86-18.77Q173.47-19.04 172.76-19.37 172.06-19.7 170.81-19.7L170.81-19.7Q169.22-19.7 167.8-18.92 166.37-18.14 165.48-16.58 164.58-15.01 164.58-12.67L164.58-12.67Q164.58-9.16 166.43-7.23 168.27-5.3 171.37-5.3L171.37-5.3Q172.96-5.3 174.01-5.63 175.06-5.96 175.67-6.3L175.67-6.3Q176.16-6.57 176.41-6.43 176.67-6.3 176.82-5.96L176.82-5.96 178.6-1.93Q178.87-1.29 178.31-1.03L178.31-1.03Q177.4-0.56 175.33 0.02 173.25 0.61 170.2 0.61L170.2 0.61Q164.07 0.61 160.41-2.65 156.75-5.91 156.75-12.4L156.75-12.4Q156.75-16.55 158.43-19.51 160.12-22.46 163.22-24.04 166.32-25.61 170.54-25.61Z" opacity="1" transform="matrix(1,0,0,1,0,0)" fill="#c10000" class="wordmark-text-0" data-fill-palette-color="primary" id="text-0"></path></svg></g></svg></g><g transform="matrix(1,0,0,1,0,85.34602711936387)"><svg viewBox="0 0 132.35958143999997 25.709046540967368" height="25.709046540967368" width="132.35958143999997"><g transform="matrix(1,0,0,1,0,0)"><svg width="132.35958143999997" viewBox="4.27 -36.74 192.29 37.35" height="25.709046540967368" data-palette-color="#003c3b"><path d="M8.23 0L4.27 0 4.27-24.98 7.57-24.98 7.93-21.31 8.03-21.31Q9.69-23.14 11.66-24.38 13.62-25.61 15.87-25.61L15.87-25.61Q18.73-25.61 20.35-24.32 21.97-23.02 22.71-20.8L22.71-20.8Q24.68-22.92 26.73-24.27 28.78-25.61 31.01-25.61L31.01-25.61Q34.84-25.61 36.72-23.13 38.6-20.65 38.6-15.87L38.6-15.87 38.6 0 34.67 0 34.67-15.36Q34.67-18.92 33.5-20.56 32.32-22.19 29.88-22.19L29.88-22.19Q27-22.19 23.44-18.19L23.44-18.19 23.44 0 19.46 0 19.46-15.36Q19.46-18.92 18.3-20.56 17.14-22.19 14.67-22.19L14.67-22.19Q11.79-22.19 8.23-18.19L8.23-18.19 8.23 0ZM56.86 0.61L56.86 0.61Q53.56 0.61 50.86-0.95 48.17-2.51 46.57-5.44 44.97-8.37 44.97-12.45L44.97-12.45Q44.97-16.53 46.57-19.48 48.17-22.44 50.73-24.02 53.29-25.61 56.15-25.61L56.15-25.61Q60.86-25.61 63.45-22.46 66.04-19.31 66.04-13.89L66.04-13.89Q66.04-12.52 65.89-11.57L65.89-11.57 48.87-11.57Q49.07-7.5 51.36-5 53.66-2.51 57.32-2.51L57.32-2.51Q59.2-2.51 60.76-3.02 62.33-3.52 63.67-4.42L63.67-4.42 65.06-1.95Q63.43-0.83 61.45-0.11 59.47 0.61 56.86 0.61ZM48.83-14.43L48.83-14.43 62.55-14.43Q62.55-18.36 60.89-20.41 59.23-22.46 56.2-22.46L56.2-22.46Q53.49-22.46 51.35-20.36 49.22-18.26 48.83-14.43ZM80.76 0.61L80.76 0.61Q76.09 0.61 73.27-2.8 70.45-6.2 70.45-12.45L70.45-12.45Q70.45-16.5 71.98-19.46 73.51-22.41 75.98-24.01 78.46-25.61 81.32-25.61L81.32-25.61Q83.49-25.61 85.11-24.84 86.74-24.07 88.37-22.71L88.37-22.71 88.23-27 88.23-36.74 92.21-36.74 92.21 0 88.91 0 88.59-2.98 88.45-2.98Q86.96-1.51 85-0.45 83.05 0.61 80.76 0.61ZM81.64-2.71L81.64-2.71Q83.42-2.71 85-3.58 86.59-4.44 88.23-6.23L88.23-6.23 88.23-19.58Q86.57-21.04 85.05-21.68 83.54-22.31 81.95-22.31L81.95-22.31Q79.88-22.31 78.21-21.07 76.53-19.82 75.53-17.6 74.53-15.38 74.53-12.45L74.53-12.45Q74.53-7.89 76.39-5.3 78.24-2.71 81.64-2.71ZM104.7 0L100.75 0 100.75-24.98 104.7-24.98 104.7 0ZM102.8-30.25L102.8-30.25Q101.6-30.25 100.87-30.99 100.14-31.74 100.14-32.98L100.14-32.98Q100.14-34.13 100.87-34.86 101.6-35.6 102.8-35.6L102.8-35.6Q104-35.6 104.73-34.86 105.46-34.13 105.46-32.98L105.46-32.98Q105.46-31.74 104.73-30.99 104-30.25 102.8-30.25ZM123.11 0.61L123.11 0.61Q119.81 0.61 117.18-0.93 114.54-2.47 113-5.38 111.46-8.3 111.46-12.45L111.46-12.45Q111.46-16.63 113.12-19.57 114.78-22.51 117.51-24.06 120.23-25.61 123.4-25.61L123.4-25.61Q125.89-25.61 127.65-24.76 129.41-23.9 130.73-22.66L130.73-22.66 128.73-20.19Q127.68-21.17 126.39-21.74 125.11-22.31 123.57-22.31L123.57-22.31Q121.25-22.31 119.44-21.07 117.62-19.82 116.57-17.61 115.52-15.41 115.52-12.45L115.52-12.45Q115.52-8.06 117.71-5.36 119.91-2.66 123.48-2.66L123.48-2.66Q125.26-2.66 126.77-3.34 128.29-4.03 129.43-5.08L129.43-5.08 131.19-2.56Q127.75 0.61 123.11 0.61ZM140.71 0L136.76 0 136.76-24.98 140.71-24.98 140.71 0ZM138.81-30.25L138.81-30.25Q137.61-30.25 136.88-30.99 136.14-31.74 136.14-32.98L136.14-32.98Q136.14-34.13 136.88-34.86 137.61-35.6 138.81-35.6L138.81-35.6Q140-35.6 140.73-34.86 141.47-34.13 141.47-32.98L141.47-32.98Q141.47-31.74 140.73-30.99 140-30.25 138.81-30.25ZM153.28 0L149.33 0 149.33-24.98 152.62-24.98 152.99-21.39 153.09-21.39Q154.89-23.17 156.92-24.39 158.94-25.61 161.53-25.61L161.53-25.61Q165.44-25.61 167.27-23.13 169.1-20.65 169.1-15.87L169.1-15.87 169.1 0 165.19 0 165.19-15.36Q165.19-18.92 164.05-20.56 162.9-22.19 160.29-22.19L160.29-22.19Q158.36-22.19 156.8-21.17 155.23-20.14 153.28-18.19L153.28-18.19 153.28 0ZM187.38 0.61L187.38 0.61Q184.09 0.61 181.39-0.95 178.69-2.51 177.09-5.44 175.5-8.37 175.5-12.45L175.5-12.45Q175.5-16.53 177.09-19.48 178.69-22.44 181.26-24.02 183.82-25.61 186.68-25.61L186.68-25.61Q191.39-25.61 193.98-22.46 196.56-19.31 196.56-13.89L196.56-13.89Q196.56-12.52 196.42-11.57L196.42-11.57 179.4-11.57Q179.6-7.5 181.89-5 184.19-2.51 187.85-2.51L187.85-2.51Q189.73-2.51 191.29-3.02 192.85-3.52 194.2-4.42L194.2-4.42 195.59-1.95Q193.95-0.83 191.97-0.11 190 0.61 187.38 0.61ZM179.35-14.43L179.35-14.43 193.07-14.43Q193.07-18.36 191.41-20.41 189.75-22.46 186.73-22.46L186.73-22.46Q184.02-22.46 181.88-20.36 179.74-18.26 179.35-14.43Z" opacity="1" transform="matrix(1,0,0,1,0,0)" fill="#003c3b" class="slogan-text-1" data-fill-palette-color="secondary" id="text-1"></path></svg></g></svg></g></svg></g></svg></g><g><svg viewBox="0 0 164.49088640300334 187.2432963942649" height="187.2432963942649" width="164.49088640300334"><g><svg xmlns="http://www.w3.org/2000/svg" xmlns:xlink="http://www.w3.org/1999/xlink" version="1.1" x="0" y="0" viewBox="6.954078954030756 0.999941860987416 86.0918420919385 98.0000816972603" enable-background="new 0 0 100 100" xml:space="preserve" height="187.2432963942649" width="164.49088640300334" class="icon-icon-0" data-fill-palette-color="accent" id="icon-0"><g fill="#003c3b" data-fill-palette-color="accent"><path d="M55.371 11.629C50.564 2.297 39.189-0.737 29.715 1.926c2.474 9.451 10.408 17.161 20.668 17.189-3.341 3.268-3.468 6.352-0.383 9.251 2.844-6.817 9.319-14.264 15.624-18.068-1.302-1.671-2.604-3.341-3.906-5.012C59.367 7.205 57.275 9.303 55.371 11.629z" fill="#003c3b" data-fill-palette-color="accent"></path></g><path d="M67.843 22.874c-8.254 0-14.818 4.25-17.843 10.915-3.025-6.666-9.589-10.915-17.843-10.915-42.13 0-26.578 81.057 10.963 75.889 3.223-0.444 5.414-1.515 6.88-3.044 1.466 1.529 3.657 2.6 6.88 3.044C94.421 103.931 109.973 22.874 67.843 22.874zM29.233 37.432c-7.044 2.937-10.386 11.057-7.449 18.101 0.576 1.383-0.077 2.97-1.459 3.546-0.341 0.142-0.695 0.209-1.042 0.209-1.062 0-2.07-0.628-2.504-1.668-4.088-9.804 0.563-21.106 10.367-25.193 1.384-0.577 2.97 0.076 3.546 1.459S30.615 36.856 29.233 37.432z" fill="#003c3b" data-fill-palette-color="accent"></path></svg></g></svg></g></svg></g></svg></g><g><path d="M0 123.6c0-68.262 55.338-123.6 123.6-123.6 48.281 0 90.096 27.683 110.439 68.042l-1.907 0c-20.204-39.389-61.221-66.342-108.532-66.342-67.324 0-121.9 54.577-121.9 121.9 0 67.324 54.577 121.9 121.9 121.9 47.312 0 88.328-26.953 108.532-66.342l1.907 0c-20.343 40.359-62.158 68.042-110.439 68.042-68.262 0-123.6-55.338-123.6-123.6z" fill="#c10000" stroke="transparent" data-fill-palette-color="tertiary"></path></g></svg></g><defs></defs></svg><rect width="395.52" height="247.2" fill="none" stroke="none" visibility="hidden"></rect></g></svg></g></svg>